<?xml version="1.0" standalone="no"?>
<!DOCTYPE svg PUBLIC "-//W3C//DTD SVG 20010904//EN"
 "http://www.w3.org/TR/2001/REC-SVG-20010904/DTD/svg10.dtd">
<svg version="1.0" xmlns="http://www.w3.org/2000/svg"
 width="16.000000pt" height="16.000000pt" viewBox="0 0 16.000000 16.000000"
 preserveAspectRatio="xMidYMid meet">
<metadata>
Created by potrace 1.11, written by Peter Selinger 2001-2013
</metadata>
<g transform="translate(0.000000,16.000000) scale(0.003200,-0.003200)"
fill="#000000" stroke="none">
<path d="M0 2500 l0 -2500 2500 0 2500 0 0 2500 0 2500 -2500 0 -2500 0 0
-2500z m389 2390 c85 -43 121 -119 121 -253 0 -87 -17 -143 -61 -198 -46 -59
-55 -47 -9 13 60 80 76 190 44 298 -52 174 -257 188 -321 22 -22 -58 -25 -201
-4 -252 32 -79 105 -140 134 -111 21 21 60 11 124 -30 34 -23 89 -52 120 -65
32 -13 53 -24 47 -24 -25 0 -83 25 -150 66 -39 24 -85 47 -102 50 -28 6 -32 4
-32 -15 0 -16 6 -21 28 -21 15 0 58 -20 96 -45 86 -56 78 -59 -12 -4 -43 25
-75 39 -90 36 -12 -2 -26 1 -30 7 -4 6 -24 20 -46 31 -75 38 -116 124 -116
245 0 197 125 319 259 250z m-9 -46 c16 -10 18 -13 5 -8 -44 16 -95 16 -120 0
-14 -9 -25 -13 -25 -8 0 29 100 41 140 16z m1205 -33 c59 -13 78 -20 55 -20
-19 -1 -51 4 -70 10 -19 6 -62 14 -95 19 -50 6 -53 7 -20 8 22 1 81 -7 130
-17z m-50 -31 c14 -7 8 -8 -20 -3 -22 3 -42 7 -44 9 -9 8 45 2 64 -6z m-110
-148 c5 -19 9 -21 20 -12 9 8 15 37 18 83 l3 72 2 -81 c2 -78 1 -81 -23 -92
-14 -7 -28 -12 -30 -12 -3 0 -4 42 -3 93 1 66 3 75 5 32 2 -33 6 -71 8 -83z
m215 47 c0 -84 23 -75 31 12 l6 64 1 -66 c2 -61 0 -68 -23 -83 -13 -9 -27 -16
-30 -16 -3 0 -5 36 -5 81 0 51 4 78 10 74 6 -3 10 -33 10 -66z m-833 -45 c-3
-3 -12 -4 -19 -1 -8 3 -5 6 6 6 11 1 17 -2 13 -5z m166 -1 c-7 -2 -19 -2 -25
0 -7 3 -2 5 12 5 14 0 19 -2 13 -5z m237 -22 c17 -32 11 -79 -16 -132 -14 -28
-28 -48 -31 -45 -3 3 -1 11 5 18 5 7 18 36 27 65 15 47 16 55 2 82 -17 33 -5
44 13 12z m-640 1 c0 -5 -7 -17 -15 -28 -14 -18 -14 -17 -4 9 12 27 19 34 19
19z m163 -23 c-10 -21 -14 -46 -10 -77 4 -34 2 -41 -5 -28 -13 23 -5 101 12
121 19 23 20 18 3 -16z m737 -184 c-3 -5 -6 25 -8 68 -2 56 -6 77 -15 74 -7
-2 -13 -30 -15 -75 -4 -90 -22 -95 -22 -7 0 59 3 69 28 93 l27 27 5 -85 c3
-47 3 -89 0 -95z m212 74 c2 -56 0 -103 -4 -106 -5 -2 -8 39 -8 91 0 81 -2 94
-15 90 -12 -5 -15 -27 -17 -98 l-2 -91 -3 94 c-3 80 -1 95 14 107 10 7 21 14
25 14 4 0 8 -45 10 -101z m-775 49 c-3 -8 -6 -5 -6 6 -1 11 2 17 5 13 3 -3 4
-12 1 -19z m-382 -16 c-3 -16 -1 -42 5 -58 9 -27 9 -28 -5 -10 -16 21 -18 38
-9 74 9 32 17 27 9 -6z m409 -83 c17 -10 26 -19 20 -19 -17 0 -64 40 -63 53 0
8 3 7 6 -1 3 -8 19 -22 37 -33z m-144 -8 c17 -6 19 -10 8 -10 -9 -1 -27 9 -40
22 -13 12 -17 17 -8 10 8 -7 27 -16 40 -22z m663 -38 c-7 -2 -19 -2 -25 0 -7
3 -2 5 12 5 14 0 19 -2 13 -5z m102 -8 c53 -17 34 -18 -35 0 -30 7 -44 13 -30
13 14 0 43 -5 65 -13z m-12 -31 c47 -16 130 -16 172 0 12 4 10 1 -5 -8 -33
-20 -118 -20 -187 0 -35 10 -73 14 -102 11 -30 -4 -39 -3 -26 3 32 14 98 11
148 -6z m1090 -205 c75 -39 171 -115 162 -129 -2 -4 -37 -5 -77 -3 -50 4 -87
0 -117 -10 -36 -13 -54 -14 -98 -5 -39 8 -72 8 -123 -1 -100 -16 -102 -15 -66
22 17 19 45 50 61 70 25 31 37 37 70 38 22 1 50 -2 62 -6 18 -6 24 -2 33 19
12 32 36 33 93 5z m-36 -248 c37 -72 50 -88 100 -116 35 -20 62 -27 101 -28
58 0 74 -23 23 -33 -17 -4 -31 -14 -34 -25 -3 -10 -17 -24 -31 -31 -23 -10
-28 -9 -41 10 -17 23 -19 24 -125 22 -47 0 -82 -6 -96 -15 -17 -11 -24 -12
-28 -2 -3 8 -8 7 -16 -5 -22 -36 -107 -7 -97 33 3 10 0 20 -7 22 -6 2 18 15
54 28 77 28 116 65 126 116 15 84 36 92 71 24z m-270 -189 c1 -15 -4 -18 -23
-14 -19 3 -22 7 -13 18 16 20 34 17 36 -4z m1573 -13 c0 -5 -11 -9 -25 -9 -28
0 -34 16 -7 23 20 4 32 -1 32 -14z m-1146 -87 c19 -22 15 -56 -8 -65 -24 -9
-54 4 -60 26 -20 76 16 96 68 39z m-1814 -1 c0 -13 14 -24 46 -36 26 -10 68
-39 94 -65 27 -27 75 -66 107 -88 62 -42 90 -69 80 -78 -3 -3 -14 -1 -25 5
-12 6 -65 11 -120 11 -84 0 -103 -3 -125 -20 -21 -17 -24 -25 -17 -49 21 -74
55 -113 128 -146 63 -29 98 -31 123 -9 27 25 78 29 95 7 28 -37 9 -118 -38
-165 -13 -13 -19 -31 -17 -56 2 -36 -15 -108 -31 -125 -4 -4 -21 4 -38 18 -17
14 -61 35 -98 45 -37 11 -68 21 -70 23 -8 8 28 101 43 113 17 12 17 14 -1 31
-18 17 -18 17 -13 -4 6 -28 -4 -29 -28 -3 -10 11 -32 20 -49 21 -51 2 -76 13
-89 39 -16 32 -53 39 -62 11 -3 -12 -13 -28 -21 -36 -8 -8 -16 -24 -17 -35 -1
-20 -47 -38 -66 -26 -17 11 20 67 68 102 55 39 96 107 106 177 l7 47 -43 19
c-36 16 -61 19 -136 15 -107 -5 -107 -6 -36 87 40 54 91 89 127 89 9 0 31 23
48 50 32 51 68 68 68 31z m1538 -37 c3 -40 2 -41 -33 -47 -51 -8 -68 0 -60 31
8 32 44 62 70 59 16 -1 21 -11 23 -43z m1817 23 c48 -2 52 -18 8 -32 -18 -5
-33 -15 -33 -22 0 -27 -62 -8 -74 23 -9 24 13 47 38 39 12 -4 39 -7 61 -8z
m-545 -27 c0 -11 -4 -20 -10 -20 -5 0 -10 -4 -10 -10 0 -19 44 -10 69 14 30
28 71 43 71 26 0 -6 8 -10 18 -8 16 3 18 -7 9 -50 -4 -16 -62 -52 -85 -52 -15
0 -32 -11 -89 -60 -18 -15 -23 -12 -23 9 0 13 -9 20 -32 24 -18 2 -35 2 -38
-2 -3 -3 -14 -13 -24 -21 -37 -28 36 89 81 131 48 44 63 48 63 19z m337 -12
c13 -12 23 -25 23 -30 0 -12 -47 21 -54 38 -8 20 4 17 31 -8z m-150 -68 c1
-10 -2 -22 -7 -25 -6 -4 -10 7 -10 26 0 34 12 33 17 -1z m33 4 c0 -8 -4 -14
-10 -14 -5 0 -10 9 -10 21 0 11 5 17 10 14 6 -3 10 -13 10 -21z m37 4 c-3 -8
-6 -5 -6 6 -1 11 2 17 5 13 3 -3 4 -12 1 -19z m147 -13 c21 -14 24 -14 29 0 8
20 27 19 27 -1 0 -9 16 -52 36 -97 21 -45 40 -101 44 -124 6 -40 5 -43 -15
-43 -13 0 -39 7 -58 15 -40 17 -108 20 -135 6 -42 -21 -80 -28 -97 -18 -18 10
-181 4 -222 -9 -17 -5 -23 -2 -23 10 0 9 4 16 8 16 5 0 25 16 45 35 20 19 42
35 50 35 21 0 73 61 88 103 7 20 17 37 21 37 4 0 4 -10 -1 -23 -10 -25 2 -57
21 -57 6 0 29 8 49 18 30 13 39 23 39 43 0 28 33 69 56 69 8 0 25 -7 38 -15z
m-1600 -128 c27 -12 28 -14 12 -30 -23 -22 -114 -24 -122 -2 -15 39 49 58 110
32z m-1360 -113 c4 -10 -2 -14 -18 -14 -29 0 -39 10 -25 26 12 15 35 9 43 -12z
m2825 -91 c10 -21 24 -57 31 -80 12 -38 18 -43 77 -68 90 -39 131 -95 81 -114
-37 -14 -56 -1 -94 60 -39 65 -48 72 -38 33 6 -25 5 -25 -16 -14 -18 10 -34
10 -75 0 -48 -11 -55 -17 -74 -56 -25 -48 -20 -68 24 -102 14 -11 25 -22 25
-24 0 -2 -27 -17 -60 -33 -33 -16 -60 -32 -60 -37 0 -19 -46 -78 -61 -78 -23
0 -30 24 -14 47 22 31 77 134 73 137 -13 8 -82 27 -128 36 -30 6 -58 16 -62
23 -17 27 -8 69 22 98 28 29 30 29 59 14 17 -8 44 -15 62 -15 58 0 153 71 165
124 7 32 31 86 39 86 3 0 13 -17 24 -37z m-204 -43 c3 -5 -1 -10 -9 -10 -9 0
-16 5 -16 10 0 6 4 10 9 10 6 0 13 -4 16 -10z m-2933 -92 c-7 -7 -12 -8 -12
-2 0 14 12 26 19 19 2 -3 -1 -11 -7 -17z m-44 -125 c-2 -22 -8 -28 -28 -28
-19 0 -24 4 -22 20 8 42 55 49 50 8z m333 -121 c6 -16 5 -22 -6 -22 -8 0 -15
4 -15 9 0 5 -3 17 -7 27 -4 11 -2 15 7 12 7 -2 17 -14 21 -26z m-7 -94 c14
-23 4 -30 -51 -35 -97 -10 -167 34 -78 48 67 11 117 6 129 -13z m2406 12 c0
-5 -2 -10 -4 -10 -3 0 -8 5 -11 10 -3 6 -1 10 4 10 6 0 11 -4 11 -10z m450 0
c0 -5 -18 -10 -40 -10 -43 0 -100 -23 -100 -40 0 -6 -7 -10 -16 -10 -32 0 -8
35 36 51 51 19 120 24 120 9z m-415 -68 c-9 -9 -25 19 -24 43 0 16 2 15 15 -8
9 -16 13 -32 9 -35z m446 -43 c25 -13 15 -29 -17 -29 -14 0 -39 -7 -55 -16
-67 -34 -148 4 -82 40 32 18 125 21 154 5z m-1461 -81 c23 -20 68 -43 114 -57
73 -23 148 -72 134 -86 -4 -5 -33 -3 -64 4 -74 14 -127 14 -142 -1 -7 -7 -12
-33 -12 -58 0 -39 5 -51 33 -77 49 -49 140 -87 190 -80 50 7 70 -3 87 -43 15
-37 13 -39 -36 -47 -58 -9 -83 -30 -96 -79 -13 -48 -19 -52 -38 -29 -7 8 -21
15 -32 15 -10 0 -36 9 -57 20 -83 42 -262 2 -319 -72 -19 -24 -5 -68 22 -68
11 0 27 4 35 9 9 6 20 2 33 -11 14 -14 25 -17 41 -11 46 17 212 -4 228 -28 25
-40 -17 -60 -88 -41 -62 17 -143 15 -164 -3 -11 -11 -26 -14 -43 -9 -29 7 -69
51 -60 65 3 5 1 9 -5 9 -18 0 -31 38 -37 107 -7 83 -35 117 -91 111 -39 -5
-42 9 -17 72 16 39 39 51 79 40 63 -18 192 37 219 93 23 49 21 104 -3 117 -28
15 -86 12 -153 -6 -32 -9 -61 -14 -64 -11 -15 15 86 167 111 167 3 0 8 -18 11
-40 4 -22 10 -43 15 -46 16 -10 89 41 104 74 9 17 18 32 21 32 3 0 23 -15 44
-32z m772 -32 c6 -30 -7 -55 -21 -41 -10 12 -2 77 9 70 4 -3 10 -16 12 -29z
m120 -84 c3 -9 2 -26 -2 -36 -6 -17 -8 -16 -23 7 -9 15 -17 31 -17 37 0 17 37
11 42 -8z m-249 -34 c-8 -46 -13 -48 -13 -5 0 21 4 37 10 37 5 0 7 -14 3 -32z
m185 -7 c3 -8 -1 -12 -9 -9 -7 2 -15 10 -17 17 -3 8 1 12 9 9 7 -2 15 -10 17
-17z m-164 -66 c3 -8 1 -15 -4 -15 -6 0 -10 7 -10 15 0 8 2 15 4 15 2 0 6 -7
10 -15z m-863 -18 c-1 -12 -15 -9 -19 4 -3 6 1 10 8 8 6 -3 11 -8 11 -12z
m379 -7 c0 -5 -2 -10 -4 -10 -3 0 -8 5 -11 10 -3 6 -1 10 4 10 6 0 11 -4 11
-10z m-155 -319 c8 -14 -58 -24 -102 -16 -27 5 -33 9 -22 16 19 12 116 12 124
0z m-1140 -673 c33 -12 97 -49 142 -81 106 -75 162 -99 244 -105 62 -4 67 -3
87 23 12 15 22 36 22 46 0 10 5 21 10 24 6 3 10 18 10 33 0 41 15 59 37 46 14
-9 19 -27 21 -85 4 -135 7 -154 30 -184 12 -16 26 -44 31 -61 l8 -30 -51 0
c-42 1 -62 -6 -116 -38 -35 -22 -82 -58 -105 -81 -40 -40 -41 -41 -110 -40
-38 1 -80 5 -92 9 -12 4 -32 9 -45 12 -35 7 -310 6 -330 -1 -30 -12 -20 2 18
24 28 17 52 21 118 21 64 0 87 4 97 16 10 13 10 19 0 36 -10 17 -10 22 0 29
11 6 11 9 -1 12 -8 3 -58 19 -111 36 -53 17 -105 31 -115 31 -10 0 -48 14 -83
30 -54 26 -61 32 -51 45 7 9 20 13 29 10 9 -2 57 -13 106 -24 50 -11 119 -33
155 -49 60 -28 67 -29 89 -15 12 8 32 13 42 10 10 -3 17 -1 14 3 -7 11 -121
73 -165 90 -19 8 -46 22 -59 32 -13 10 -36 18 -51 18 -31 0 -128 37 -150 57
-10 9 -11 16 -3 24 9 9 30 7 83 -5 40 -9 84 -16 99 -16 14 0 64 -23 111 -50
47 -28 94 -53 105 -56 26 -7 66 8 57 21 -14 20 -131 115 -141 115 -18 0 -111
63 -111 75 0 32 29 31 125 -7z m1982 15 c5 -12 -4 -24 -28 -42 -18 -14 -52
-43 -75 -63 -23 -21 -44 -38 -48 -38 -15 0 -95 -102 -96 -122 0 -5 15 -8 33
-8 24 0 54 15 111 56 62 46 97 62 179 87 129 38 188 48 205 35 21 -18 13 -28
-23 -28 -31 0 -83 -17 -95 -30 -11 -14 -98 -50 -119 -50 -13 0 -35 -9 -49 -21
-15 -11 -52 -38 -82 -60 -64 -46 -39 -47 40 -1 30 17 66 32 80 32 14 0 70 16
125 35 103 36 135 42 135 26 0 -15 -204 -111 -233 -111 -24 0 -98 -34 -129
-58 -7 -6 -30 -26 -52 -44 l-38 -32 22 -18 c12 -10 32 -18 44 -18 13 0 25 -3
29 -6 9 -9 -4 -34 -18 -34 -7 0 -15 -5 -17 -10 -2 -6 -35 -15 -73 -21 -39 -6
-73 -17 -78 -24 -4 -8 -28 -24 -53 -37 -26 -12 -49 -30 -52 -38 -3 -8 -10 -18
-16 -22 -6 -4 3 -8 19 -8 l30 -1 -23 -19 c-19 -15 -28 -17 -55 -8 -54 17 -72
15 -72 -7 0 -44 -86 -19 -117 35 -11 19 -34 33 -82 50 -36 13 -65 28 -63 34 2
5 17 14 34 20 43 16 107 96 75 96 -4 0 -15 12 -24 27 -16 26 -16 30 4 64 18
32 29 39 87 54 104 28 177 72 276 165 33 32 78 67 100 79 22 12 64 40 94 61
60 44 78 49 88 23z m243 -420 c0 -12 -146 -57 -163 -50 -8 3 -25 0 -38 -6 -24
-12 -103 -8 -84 4 6 4 59 17 120 29 60 12 112 23 114 26 7 7 51 4 51 -3z"/>
<path d="M2502 2166 c-4 -6 -16 -30 -26 -52 -22 -51 -14 -84 19 -84 13 0 27
-4 30 -10 10 -15 52 -12 70 6 9 9 25 14 35 11 38 -10 44 46 10 86 -6 6 -16 19
-23 28 -15 20 -103 32 -115 15z"/>
<path d="M1714 789 c-3 -5 9 -9 25 -9 17 0 31 3 31 8 0 10 -49 12 -56 1z"/>
</g>
</svg>
